<?xml version="1.0" encoding="utf-8"?>
<!-- Generator: Adobe Illustrator 16.0.0, SVG Export Plug-In . SVG Version: 6.00 Build 0)  -->
<!DOCTYPE svg PUBLIC "-//W3C//DTD SVG 1.1//EN" "http://www.w3.org/Graphics/SVG/1.1/DTD/svg11.dtd">
<svg version="1.1" xmlns="http://www.w3.org/2000/svg" xmlns:xlink="http://www.w3.org/1999/xlink" x="0px" y="0px" width="960px"
	 height="560px" viewBox="0 0 960 560" enable-background="new 0 0 960 560" xml:space="preserve">
<g id="paths">
	<path id="ireland" fill="none" stroke="#000000" stroke-width="0.05" d="M228.747,300.234c2.4-2.749,6.022,4.799,7.206,4.799
		c2.239,0,5.639-5.666,7.589-8.993c2.474-4.222,6.546-3.958,9.154-4.342c4.988-0.733,2.931-3.099,4.511-6.655
		c0.121,1.371,1.015,2.077,2.319,1.674c0.094-3.348,2.003-4.879,2.339-8.274c0.37-3.649-0.82-5.357-2.588-8.254
		c-1.438-2.366-3.73-4.631-7.166-4.651c-1.479-0.006-3.75,0.356-5.095,0.854c-1.794,0.665-3.313,2.379-5.343,1.586
		c1.021-2.178,4.543-2.958,6.432-4.504c1.11-0.914,3.308-2.15,3.456-3.677c0.087-0.893-1.875-1.088-1.5-2.809
		c-1.197-0.692-2.298-0.444-3.34-1.311c-0.747-0.625-1.264-2.547-2.346-3.401c-1.976-1.545-4.234-2.157-4.9-4.806
		c-0.416-1.66,0.928-1.976-0.988-3.75c-0.834-0.773-2.231-0.478-2.743-1.667c-0.766-1.781,1.136-2.763,1.264-4.289
		c0.174-2.097-0.525-1.243-1.465-2.695c-0.726-1.123-0.821-2.084-2.017-2.467c-0.41-0.135-3.072,0.948-4.073,0.827
		c-2.219-0.289-4.154-1.351-6.628-1.445c-2.951-0.114-6.608-0.396-9.35,0.336c-1.922,0.511-2.95,2.097-4.664,2.83
		c-1.546,0.659-3.086,0.585-4.813,0.564c-2.575-0.04-6.083-1.889-7.818-0.006c-1.331,1.452-1.17,6.124-3.637,7.26
		c-1.291,0.591-6.903-1.432-8.966-1.237c1.822-2.534,4.322-6.218,7.313-7.333c2.507-0.928,6.466,1.008,5.122-3.777
		c-4.8-1.069-5.021-2.313-8.678-5.163c-2.057-1.593-5.653-2.595-8.436-2.588c0.423,1.25,0.167,2.225,1.297,3.361
		c-1.869,1.841-4.879,0.034-6.855,2.252c-1.547,1.727-0.828,5.814-0.411,7.979c0.639,3.307,1.721,3.717-0.29,6.453
		c-1.216,1.654-5.337,4.356-7.152,5.794c-1.485-2.971,1.742-3.677,2.958-5.794c2.07-3.616,0.598-3.569-0.363-6.776
		c-0.579-1.916-0.552-4.98-2.575-5.599c-2.386-0.732-3.219,1.829-5.525,1.768c-0.101,1.774,0.787,5.579-1.358,6.002
		c-3.273,0.645-1.842-4.214-4.295-5.216c-2.426-0.988-3.804,1.701-5.72,2.602c-2.487,1.176-5.364-0.087-7.717,0.84
		c-4.422,1.761-5.673,7.992-7.319,11.205c-0.699,1.378-2.232,0.84-2.413,2.615c-0.061,0.571,2.225,1.391,2.11,2.205
		c-0.396,2.905-3.69,2.064-2.655,4.645c-2.957,2.615-7.709,1.774-10.707,3.792c-4.175,2.81-2.071,5.168,2.15,6.453
		c6.48,1.963,13.551,3.381,20.589,1.983c-1.875,3.697-4.793,7.266-8.543,8.866c-3.348,1.425-11.898,2.863-10.257,8.442
		c2.695,0.007,6.096,0.249,5.027,3.973c-6.083,2.204-14.486-4.981-21.893-1.667c-2.125,0.947-4.114,9.471-7.421,7.348
		c-1.573-1.009-0.362-4.619-1.163-6.023c-1.216-2.145-2.541-2.393-5.035-2.615c-2.561-0.229-5.236,0.841-7.871,0.451
		c-2.399-0.363-3.985-1.177-6.446-1.305c-1.499-0.074-5.243,0.135-6.554,0.86c-1.311,0.733-1.116,0.37-2.063,1.291
		c-0.719,0.699,0.598,2.204-0.847,3.045c-3.731,2.165-3.347-3.024-5.256-3.516c-2.104-0.544-4.195,1.78-4.544,4.032
		c-0.955,6.044,3.932,2.912,6.81,5.035c0.047,0.033,0.538,2.931,0.82,3.381c0.295,0.471,1.976,0.43,2.507,1.466
		c1.264,2.446-0.787,5.687,3.064,5.901c-1.324,2.017-4.086,3.1-6.352,3.959c-0.181,0.633-0.208,1.775-0.047,2.42
		c3.253,1.103,15.03-0.82,15.393,3.032c-4.745,0.632-15.521-1.089-13.632,6.876c1.814,0.848,1.324,2.756,1.177,4.752
		c-5.552,0.242-13.941-0.088-12.355,8.16c4.147,0.033,4.101,5.035,7.656,6.205c3.522,1.17,4.732-2.084,7.73-2.199
		c-2.017,2.684-3.563,5.613,1.418,6.42c4.295,0.693,4.033-3.878,8.039-2.977c0.013,1.505,0.047,3.084,0.107,4.59
		c4.437,2.568,9.733,5.929,15.514,4.006c1.236-0.403,2.856-1.68,4.087-2.211c0.329-0.142,4.583-1.277,4.409-1.331
		c3.375,0.995,2.541,3.294,2.628,6.278c-2.527-2.145-11.87-0.498-14.156,1.486c-0.49,0.43-0.021,2.634-0.478,3.367
		c-0.752,1.223-2.177,1.808-3.044,2.891c-1.352,1.693-2.776,2.588-2.084,5.316c5.976,0.523-4.785,10.949-6.534,11.904
		c-3.327,1.814-4.557,3.099-7.292,5.613c-1.426,1.311-4.518,3.629-6.387,3.689c-0.127,0.255-0.167,0.531-0.127,0.813
		c5.565,2.139,10.875-4.328,16.22-4.799c6.13-0.537,10.93,3.986,16.529-0.807c2.494-2.137,2.709-4.375,6.459-4.738
		c2.669-0.262,5.869,0.39,5.102,3.805c-3.213-0.303-6.022,3.239-9.087,4.025c-6.964,1.795-13.074,1.385-20.078,1.19
		c-5.142-0.135-2.42,0.249-4.739,3.044c-3.516,4.249-8.866,1.271-11.709,6.885c2.292,1.061,7.885,3.871,3.099,5.908
		c3.448,2.352,3.072,4.229-0.78,3.871c-2.373-0.222-5.559-2.178-7.763-3.307c-0.074,1.068-0.915,1.848-1.016,2.904
		c-1.492,0.12-3.085,0.12-4.577,0.006c-1.613-4.456-11.595,3.052-10.762,7.307c3.59,0.195,7.488,0.652,10.654,0.975
		c4.417,0.443,8.47-2.581,12.449-1.701c-1.304,4.86-12.463,7.435-16.287,9.412c-2.091,1.074-6.541,4.039-4.645,7.198
		c1.701,2.83,5.874,0.545,8.476,1.028c-0.78,3.085-0.229,8.013,4.705,6.748c-0.214-0.967,0.336-2.318,0.101-3.3
		c6.17-1.56,11.474-4.161,17.477-5.169c-3.583,2.607-7.757,4.355-11.151,6.722c-1.539,1.068-2.541,3.24-4.188,4.322
		c-2.125,1.397-6.534,0.121-4.396,4.342c3.596,0.101,4.799-0.35,7.837-1.7c1.116-0.491,1.324-1.304,2.648-1.701
		c1.391-0.423,3.125,0.235,4.544-0.107c4.45-1.063,8.752-6.89,13.389-2.069c-0.799,2.789-12.556,3.757-14.996,6.843
		c3.232,0.16,5.921-0.155,8.953-1.19c0.169,3.308-2.298,2.266-4.597,3.308c-2.568,1.156-4.026,1.586-5.64,4.329
		c4.833,0.234,13.215-2.044,17.208-4.518c2.347,1.472,4.154,3.805,7.313,3.052c2.252-0.538,4.625-2.394,6.856-3.187
		c3.213-1.149,4.84,0.061,7.845-0.443c3.448-0.578,5.001-5.028,8.96-1.452c1.754-1.976,0.954-3.502,3.441-4.591
		c1.001-0.43,4.309,0.43,6.07-0.162c6.641-2.217,8.765-3.925,9.565-10.882c3.3,0.067,3.657,5.089,8.436,3.341
		c3.375-1.236,8.026-6.11,9.895-8.194c1.384-1.553-0.411-4.106,3.798-3.037c3.044,0.771,1.72,3.333,5.666,2.627
		c2.998-0.537,8.369-8.065,3.502-8.664c0.188-3.388,4.988-2.701,7.683-2.971c3.623-0.357,6.022-2.185,9.498-2.621
		c3.166-0.404,5.411,0.685,8.456-0.357c5.27-1.808,4.282-3.334,6.527,2.951c3.099-0.402,3.911-5.504,3.952-8.093
		c4.935-1.062,6.715,8.993,12.899,5.546c5.323-2.972-1.587-7.502-1.324-11.192l1.291,0.86c4.605-0.471,4.187-3.26,5.572-6.453
		c1.15-2.668,3.253-3.959,4.322-6.526c1.049-2.521-0.531-5.714,0.424-8.106c0.894-2.271,3.508-3.845,4.652-6.439
		c2.285-5.189,3.878-9.356,3.098-15.057c-0.478-3.496-0.585-5.256-2.063-8.517c-1.432-3.146-4.84-4.558-5.774-7.414
		c2.151-1.513,4.792,0.31,5.256-2.575c0.343-2.144-1.969-2.99-3.515-3.838c1.56-2.729,4.336-5.209,1.694-8.98
		c-2.124-3.045-4.376-2.003-5.068-6.54c-0.376-2.42,1.183-7.407,0.04-9.484c-1.62-2.923-5.189-1.263-4.268-6.366
		c1.506-0.08,8.483,0.882,9.431-0.106C234.81,303.925,229.036,302.063,228.747,300.234z"/>
	<path id="uk" fill="none" stroke="#000000" stroke-width="0.05" d="M422.335,498.554c-3.583,0.363-7.999-2.244-10.722,0.356
		c3.079,0.31,3.562,4.591,1.244,6.15c-1.909,1.277-6.178-0.907-7.711-1.311c-2.662-0.699-7.146-2.38-9.914-1.755
		c-3.509,0.787-2.992,1.89-3.065,5.546c-4.026-0.752-4.873-5.075-7.589-7.394c-3.623-3.092-7.918-2.682-12.576-2.453
		c-8.268,0.409-16.791,9.135-24.03,3.508c0.94,1.561,0.638,2.877,0.208,4.652c-0.148,0.604-1.694,1.196-1.996,2.164
		c-0.161,0.504,0.208,1.23,0.006,1.721c-1.176,2.837,0.148,5.854-1.378,8.638c-0.591,1.082-2.836,0.383-3.381,1.667
		c-0.538,1.257,1.224,2.863,0.888,4.314c-0.779,3.382-4.107,3.563-7.347,3.053c-1.587-0.256-3.349-1.312-4.76-2.138
		c-3.004-1.762-2.171-1.795-5.532-2.628c-3.966-0.981-7.925-2.81-11.689-3.557c-4.342-0.866-8.631-0.054-12.745,0.545
		c-1.471,0.215-5.364-0.316-6.547,0.424c-1.599,0.988-1.311,2.856-3.005,3.885c-1.304,0.8-3.932,0.424-5.579,1.271
		c-1.391,0.719-3.724,1.949-4.65,2.688c-2.561,2.044-1.802,0.995-2.34,4.208c-0.269,1.6,0.202,4.194-0.961,5.606
		c-1.284,1.553-3.394,2.218-5.384,1.707c-3.065-0.787-1.143-1.809-3.099-3.462c-1.123-0.955-3.2-2.077-4.322-2.896
		c-1.762-1.291-1.876-3.126-4.692-2.064c0.04,1.411,0.215,3.267,0.034,4.819c-2.212,0.921-6.198,0.988-8.154,0.162h0.214
		c-0.604-0.088-1.155-0.41-1.687-0.679c-0.256-5.096,0.376-7.858,5.929-8.84c2.258-0.396,4.409,0.168,6.681,0.054
		c2.434-0.12,3.045-1.21,5-2.387c1.883-1.129,2.965-2.722,4.544-4.234c1.553-1.492,2.037-2.85,3.839-4.086
		c1.31-0.901,2.741-1.903,3.28-3.496c0.571-1.701-0.229-3.63,0.672-5.135c1.673,0.248,2.587,1.115,4.631,1.021
		c0.632-2.494-2.662-2.938,1.311-3.193c2.037-0.127,3.818-0.518,4.96-2.305c0.545-0.848,0.29-1.734,1.278-2.608
		c0.631-0.559,1.855-1.123,2.567-1.586c1.734-1.137,3.428-2.32,4.531-4.074c1.486-2.379,0.168-3.777,0.431-6.21
		c0.127-1.171,1.042-1.924,1.311-3.006c0.235-0.975-0.371-2.251,0.067-3.179c1.015-2.157,3.301-1.937,5.054-1.284
		c2.494,0.935,3.193,1.17,5.748-0.088c2.386-1.183,4.086-2.682,3.307-5.396c-0.296-1.021-1.277-1.903-0.88-2.951
		c0.417-1.109,2.098-1.331,3.038-1.546c4.424-1.021,8.611-3.193,13.538-3.193c3.045,0,4.767,0.599,7.535,1.298
		c2.387,0.598,4.181-0.633,6.46-0.438c2.595,0.222,4.846,2.716,7.488,2.816c1.788,0.067,4.745-0.604,6.486-1.217
		c2.05-0.712,3.817-0.457,6.009-0.739c2.938-0.383,2.595-1.532,2.595-4.288c0-2.823-0.154-3.912,1.889-5.828
		c1.883-1.761,2.447-3.354,4.961-4.349c2.648-1.049,4.269-1.122,6.48-2.944c1.995-1.647,2.829-2.972,4.1-5.129
		c1.122-1.909,2.467-3.764,4.195-5.223c1.411-1.189,5.672-2.245,5.015-4.686c-1.997-0.282-4.612,2.595-6.037,3.784
		c-2.036,1.708-3.623,3.724-6.184,5.236c-2.286,1.345-5.458,3.113-8.135,3.697c-1.209,0.27-2.795-0.235-3.918,0.148
		c-1.176,0.403-2.138,1.882-3.247,2.763c-1.236,0.988-2.392,2.198-3.777,2.829c-1.876,0.854-1.814,0.249-2.648,2.151
		c-0.585,1.324-0.369,1.889-1.774,2.38c-1.781,0.618-5.081-0.874-7.051-0.867c-2.091,0.007-4.303,0.094-6.205-0.908
		c-1.814-0.961-3.267-2.735-5.148-3.609c-1.809-0.84-3.751-2.069-4.96-3.918c-1.352-2.077-0.76-4.544-4.121-4.478
		c-2.022,0.04-4.026,1.196-5.989,1.331c-0.275,0.658-0.537,1.116-0.498,1.882c-1.727,0.061-3.656-0.537-5.128-0.41
		c-1.62,0.142-2.763,1.58-4.497,1.526c-2.266-0.061-2.622-1.331-2.602-3.293c0.02-2.071,0.295-2.326,2.359-2.534
		c1.546-0.155,5.203,0.92,5.384-1.291c0.127-1.62-2.306-2.359-3.617-2.117c-2.009,0.363-7.81,3.408-6.889-1.721
		c0.255-0.014,0.551-0.067,0.813-0.061c-2.198-3.785-5.552-0.263-8.557-0.021c-2.466,0.202-7.851-0.706-7.165,3.67
		c-1.694,0.43-3.711,0.895-5.176,1.532c-1.714,0.74-2.991,1.917-4.954,1.95c-0.82,0.013-4.786-0.182-5.291-0.692
		c-0.43-0.444,0.249-1.775-0.181-2.346c-0.315-0.417-1.815-0.531-2.399-0.652c-0.122-0.377-0.128-1.089,0-1.459
		c1.6-0.054,9.935,2.171,9.181-1.075c-0.887,0.195-1.727,0.599-2.762,0.41l0.215,0.215c-1.332-0.161-3.033,0.135-4.316-0.195
		c-1.445-0.383-1.438-1.371-3.059-0.672c-1.109,0.483-2.756,2.931-3.992,0.659c-0.915-1.668,0.793-2.185,1.733-2.75
		c1.298-0.773,2.918-0.934,3.187-2.695c0.134-0.907-0.793-2.931-1.5-3.549c-1.418-1.237-6.533-1.028-8.382-1.156
		c1.008-1.009,2.689-1.889,4.047-2.185c-0.114-2.131,2.399-2.278,3.893-2.896c1.748-0.727,2.735-1.708,2.615-3.838
		c2.479-0.195,3.529,2.709,6.157,1.854c1.069-0.349,1.935-1.264,3.293-1.518c1.25-0.229,1.734,0.113,2.769-0.619
		c0.887-0.625,1.129-1.801,2.326-2.439c0.362-0.201,1.049,0.054,1.345-0.148c0.336-0.235,0.47-0.719,0.686-0.867
		c2.124-1.492,3.307-1.768,5.982-2.137c2.662-0.377,3.872-0.659,6.023-2.172c1.647-1.149,3.549-1.977,5.31-3.059
		c1.976-1.21,3.22-2.85,4.955-4.477c1.559-1.458,3.267-2.602,4.106-4.94c0.504-1.418,1.357-2.864,1.54-4.511
		c0.162-1.525,0.221-3.521-0.148-5.021c-0.362-1.458-0.719-1.17-1.277-2.245c-0.679-1.33-1.015-1.398-0.061-2.823
		c0.229-0.336,5.6-4.847,5.109-4.934c-1.446-0.255-2.508,1.425-3.792-0.081c-0.759-0.867-0.483-2.393-1.344-3.388
		c-1.324-1.546-2.185-2.225-1.452-4.355c0.282-0.834,2.245-2.514,1.001-3.636c-1.108-1.002-8.362,1.384-10.103,1.713
		c-1.27,0.242-2.917-0.066-4.052,0.457c-1.284,0.592-1.406,1.963-3.22,1.533c-0.134,1.572,1.626,2.353,1.237,4.033
		c-2.171,1.687-2.702-1.217-4.201-1.869c-2.299-1.008-3.529,1.916-5.465,2.252c-5.075,0.887,1.244-7.059,2.965-7.925
		c1.748-0.874,3.965-0.618,5.444-1.714c0.955-0.706,1.553-1.708,2.568-2.366c0.88-0.571,2.305-0.935,3.024-1.452
		c1.896-1.379,1.056-2.467,1.875-4.396c0.808-1.916,2.944-3.031,3.933-4.867l-0.181-0.1c-1.896,1.627-3.267,1.546-5.781,0
		c-1.52-0.941-4.899-2.279-6.339-3.186c-1.801-1.15-2.533,0.651-4.583,0.02c-1.741-0.538-3.28-2.797-2.877-4.658
		c1.935-0.223,5.605,2.742,6.433-0.612c0.35-1.438-1.412-2.198-1.318-3.294c0.135-1.525,2.05-1.599,2.998-1.969
		c2.212-0.867,4.216-1.311,6.635-1.533c2.218-0.201,2.911-0.43,4.154,1.479c0.572,0.866,0.754,2.117,1.701,2.319
		c0.323,1.311,0.511,4.025,2.366,4.02c1.163-0.008,1.432-1.297,2.386-1.701c0.665-0.275,1.848-0.033,2.554,0
		c0.411,1.701-1.472,3.233-2.338,4.471c2.587-1.473,6.237-1.346,8.778-2.816c0.691-0.403,1.371-1.627,2.191-1.728
		c0.928-0.122,1.202,0.92,2.521,0.53c2.487-0.726,2.313-2.109,4.806-0.114c1.675,1.338,2.851,1.983,5.149,1.149
		c3.678-1.33,6.91-4.127,11.238-2.775c3.583,1.121,5.707,4.873,9.397,5.955c-0.282-1.055-0.599-2.231-1.068-3.227
		c-0.585-1.25-2.36-2.555-2.804-3.797c-0.819-2.326,2.205-3.106,4.066-3.697c3.845-1.225,0.403-2.588-0.194-4.954
		c-0.504-1.99,1.775-4.437,2.595-6.164c0.672-1.411,0.874-2.399,2.043-3.516c0.935-0.895,2.231-0.995,3.133-1.781
		c3.065-2.682-1.122-1.909-2.87-2.527c-2.138-0.753-2.925-3.28-2.951-5.6c-0.033-2.668-0.208-4.39,2.366-5.142
		c1.458-0.431,5.465-0.672,4.053-3.2c-2.85-0.706,3.341-4.604,3.752-5.619c0.731-1.842,1.733-8.617-1.318-7.71
		c-0.457,1.035-1.62,4.107-2.85,4.295c-0.598,0.095-1.788-0.847-2.394-1.122c-1.472-0.659-1.196,0.269-2.164-1.217
		c-0.497-0.767-0.531-1.882-1.001-2.474c3.441,5.189-6.218,8.705-9.888,8.409c-0.062-2.313,0.181-3.817,1.485-5.741
		c0.853-1.263,2.244-2.654,0.84-4.275c-0.081,0.875-1.479,2.213-2.366,2.535c-1.432,0.523-1.465,0.074-2.507-0.658
		c-2.111-1.493-3.388-3.637-4.248-6.023c-1.049-2.924-2.655-3.832-4.947-5.646c-3.112-2.46-2.911-3.757-2.851-7.367
		c0.027-1.613-0.229-1.956,0.585-3.576c0.504-0.995,1.345-1.688,1.688-2.836c0.807-2.662,0.961-3.341,3.206-5.311
		c2.387-2.083,1.108-4.046,2.427-6.675c1.276-2.534,2.393-2.325,4.926-2.615c-0.18-0.786-0.53-1.64-0.389-2.514
		c2.003-0.108,4.087,0.174,6.09-0.027c1.801-0.181,7.084-1.505,2.716-3.024c-1.896-0.652-5.136-0.102-7.112-0.209
		c-2.285-0.121-4.302,0.564-6.393,0.646c-2.252,0.087-3.992-3.193-6.075-2.366c-1.54,0.612,0.181,3.381-0.263,5.109
		c-0.955,3.717-2.231,2.225-5.116,2.628c-1.122,0.148-2.325,1.734-3.226,1.768c-1.667,0.074-1.392-1.93-2.992-1.957
		c-0.026,0.915,0.33,2.561-0.02,3.375c-0.638,1.492-0.558,0.592-1.942,1.116c-2.11,0.8-4.262,2.298-6.386,3.004
		c0.141-1.29-1.331-4.638-2.607-4.483c-0.061,1.277,0.303,3.112-0.451,4.127c-1.297-1.486-3.044-1.654-4.329-2.924
		c-0.988-0.975-0.424-1.929-1.251-2.978c-1.62,1.278-3.011-0.517-4.308-1.216c-1.317-0.712-1.646-0.894-3.227-0.591
		c-0.295,2.239,1.6,3.986,1.701,6.191c0.107,2.433,0.692,4.557,0.625,7.03c-4.194,0.209-7.885-3.529-11.353-5.316
		c-2.259-1.17-3.065-2.373-5.727-2.407c-4.026-0.054-2.527-2.628-5.277-4.342c-1.869,2.702-4.053,2.433-2.36,6.063
		c0.727,1.546,3.919,5.068,1.11,6.272c-0.968,2.715-3.912-3.368-4.235-3.959c-0.854-1.566-1.539-3.489-2.897-4.679
		c-0.793-0.692-2.426-0.927-3.018-1.539c-1.014-1.049-0.739-2.191-1.291-3.469c-0.457-1.062-1.62-1.431-2.057-2.298
		c-0.988-1.97,0.383-1.761,1.371-2.951c0.847-1.015,0.861-2.5,2.38-2.607c0.497,0.746,1.062,1.465,1.936,1.713
		c0.188,1.311,0.067,6.137,2.581,5.082c1.889-0.793-0.88-3.818-1.411-4.786c-1.028-1.896-0.182-2.474,0.322-4.45
		c0.215-0.854-0.054-1.654,0.296-2.5c0.417-0.995,1.768-1.829,2.353-2.864c0.457-0.806,0.195-1.391,0.787-2.191
		c0.443-0.605,1.371-0.955,1.982-1.445c1.842-1.472,1.801-2.547,2.595-4.719c0.773-2.124,2.642-3.657,3.656-5.761
		c1.265-2.622,3.328-2.01,5.123-3.979c1.371-1.505,0.121-3.865-0.396-5.768c-0.35-1.271-0.215-2.003-1.345-3.011
		c-0.867-0.786-1.54-0.531-2.333-1.055c-0.544-0.363-0.544-1.277-1.029-1.58c-0.786-0.504-1.465-0.276-2.197-0.618
		c-0.928-0.424-1.795-1.049-2.776-1.465c-1.532-0.659-1.673-0.417-1.795-1.922c-0.027-0.37,0.491-2.877,0.712-3.522
		c0.356-1.008,1.284-1.781,1.56-2.944c0.362-1.519-0.154-2.776-0.309-4.274c-0.263-2.515,1.062-3.287,3.32-4.706
		c4.948-3.105,6.816,2.286,11.717,2.279c0.403-1.62-1.083-1.378-1.916-1.936c-1.465-0.975-1.667-2.199-2.742-3.375
		c-1.714-1.875-6.285-1.956-7.549,0.498c0.249-1.413-0.591-2.299-2.077-2.078c1.533-2.716,6.265-6.379,3.818-10.109
		c-2.05,0.477-0.827,3.132-2.642,4.073c-2.715,1.419-1.895-2.399-3.784-2.5c-0.283,1.304,0.766,2.231,0.84,3.395
		c0.067,1.136-0.477,1.485-0.618,2.38c-0.33,2.09,0.578,4.274,0.013,6.291c-0.437,1.56-1.956,3.422-3.064,4.678
		c-1.19,1.352-0.256,1.822-1.983,0.592c-0.942-0.672-1.613-1.841-2.158-2.837c-0.739,2.595,0.383,4.343,1.762,6.265
		c1.284,1.794,1.633,3.932,1.472,6.083c-3.562-1.251-6.829-5.687-7.481-9.445c-0.249-1.412-0.383-6.177-1.506-2.595
		c-0.37,1.183-0.907,4.666-0.619,5.761c-2.897-2.555-4.927-3.018-4.974-7.475c-0.041-3.938,2.816-5.424,5.639-7.46
		c3.012-2.179,5.378-4.356,8.396-6.729c1.15-0.908,3.395-2.292,3.61-3.885c0.289-2.15-1.136-2.144-2.796-1.519
		c-2.507,0.934-4.302,3.247-6.479,4.745c-1.761,1.217-3.126,2.622-4.544,4.067c-1.458,1.486-2.776,3.259-4.47,4.537
		c-2.185,1.64-2.904,1.768-2.628,4.739c0.174,1.916,0.659,4.093,1.587,5.74c0.671,1.183,1.68,1.882,2.278,3.139
		c0.841,1.768,0.296,1.828-0.396,3.206c-0.659,1.318-1.075,2.494-2.394,3.361c-1.196,0.787-1.438,0.276-2.318,1.54
		c-1.224,1.754-0.787,3.933-0.895,5.996c-1.882,0.86-2.325,2.635-2.762,4.543c-0.464,2.023-1.237,2.702-2.205,4.477
		c-1.432,2.621,0.114,1.398,1.579,3.045c1.116,1.257,0.579,3.173,0.162,4.705c-1.936,0.76-10.284,3.798-11.548,0.632
		c-0.652-1.621,1.553-4.195,2.125-5.499c0.692-1.58,1.391-3.623,1.896-5.431c0.579-2.098,0.255-4.208,0.463-6.413
		c0.236-2.507,1.513-2.514,2.851-4.537c1.203-1.822,2.056-2.642,3.677-4.269c1.028-1.035,3.193-3.051,3.771-4.328
		c-1.627,0.866-4.45,3.892-6.513,2.856c-1.581-0.793-0.659-1.701-0.739-3.112c-0.014-0.283-0.949-3.469-1.197-2.992
		c1.183-2.244,2.742-4.604,0.215-6.654c0.888-1.075,2.386-2.85,1.17-4.08c0.732-1.189,2.897-2.863,3.172-4.14
		c0.37-1.748-1.425-2.561-1.25-4.269c0.107-1.015,5.169-7.246,0.471-6.702c-0.263-1.459,1.761-2.991,2.493-4.114
		c1.237-1.895,1.634-3.596,3.959-4.443c1.405-0.517,4.073-1.317,2.978-3.36c-0.652-1.21-2.723-1.25-3.845-1.862
		c1.25-1.714,2.461-3.059,3.462-5.062c1.291-2.561,2.043-3.703,4.531-5.128c2.439-1.391,2.01-1.775,3.166-3.959
		c1.002-1.889,2.978-2.4,2.984-5.143c-4.402,0.914-3.985,4.948-7.279,7.3c-2.245,1.606-4.611,2.555-6.675,4.403
		c-1.553,1.392-3.166,2.689-4.678,3.972c-1.795,1.506-2.608,3.858-5.23,3.893c-1.256,0.013-1.895-0.572-2.991-0.881
		c-1.076-0.295-2.165,0.014-3.226-0.208c-2.044-0.43-3.441-2.474-4.907-3.711c-1.768-1.492-3.738-2.876-0.478-3.387
		c2.177-0.343,4.617,0.268,6.681-0.417c0.955-0.316,1.432-1.351,2.346-1.688c0.833-0.315,3.314,0.303,2.804-1.405
		c-0.236-0.773-2.776-1.075-2.764-0.974c0.31,2.89-3.488,1.176-5.048,1.673c-0.726,0.236-1.337,0.995-2.05,1.338
		c-1.229,0.598-2.554,0.423-3.657,1.021c-0.349-0.766-0.645-0.888-1.519-0.874c1.708-2.897-7.232-2.003-8.53-2.205
		c0.881-1.076,2.414-2.917,3.744-3.22c0.384-3.502,11.367,1.183,13.357-2.46c-0.236-0.007-0.531-0.021-0.767-0.067
		c-0.235-2.03-0.04-2.138,1.655-3.025c0.94-0.497,2.923-0.631,2.533-2.306c-1.331-0.047-2.688-0.013-4.033-0.02
		c-2.501-0.014-2.756-0.054-2.568-2.548c1.963-0.927,1.768-2.205,2.548-3.71c0.813-1.566-0.262-1.082,1.929-1.431
		c3.011-0.484,3.394,1.97,6.217,1.418c-0.235-2.843-3.259-3.804-5.753-4.302c-0.303-2.399,1.452-2.89,3.475-3.576
		c2.038-0.686,2.958,0.323,5.291,0.141c0.06-2.359-2.998-2.48-4.692-3.031c0.376-2.515,7.064-4.92,6.466-7.004
		c-0.463-1.613-6.748-2.211-7.562-0.699c-0.471,0.881,0.107,2.891-0.202,3.893c-0.249,0.8-1.063,2.164-1.721,2.736
		c-0.968,0.827-2.231,0.947-2.958,1.997c-0.713,1.028-0.646,1.707-0.706,2.977c-0.074,1.654,0.376,2.178-0.908,2.816
		c-0.766,0.383-4.086,0.263-4.92,0.006c-2.225-0.679-1.93-2.466-1.237-4.309c0.551-1.465,2.13-4.033,0.013-5
		c-2.688-1.223-2.547,2.399-4.214,3.038c-0.88,0.336-2.481-0.699-3.361-0.833c-1.102-0.168-2.346,0.249-3.434,0
		c-2.387-0.558-0.619-0.598-1.728-2.386c-0.49-0.773-1.539-1.056-2.588-1.224c-2.669-0.451-5.156-1.009-6.083-4.141
		c-1.291-4.356,4.227-0.639,5.659-1.493c-0.914-1.277-2.42-1.102-3.663-1.768c-1.593-0.854-1.016-1.875-2.191-2.749
		c-2.46-1.835-2.346,3.119-4.652,3.415c-0.356-0.76-0.242-2.063-0.934-2.742c-0.457-0.458-2.85-1.029-3.57-1.345
		c-2.533-1.116-1.666-1.546-1.539-3.845c0.114-2.043-0.343-3.683,2.098-1.889c1.243,0.921,2.983,3.609,4.96,2.494
		c-0.276-1.082-3.664-3.704-0.223-3.657c0.598-2.211-2.063-2.379-2.13-4.517c-0.128-4.275,2.44-0.908,3.488,0.214
		c1.56,1.654,2.958,2.716,4.329,4.759c1.21,1.815,2.978,3.079,5.499,2.77c0.181-2.104-0.539-2.729-1.244-4.329
		c-0.511-1.143-0.887-2.81-1.525-4.181c-1.963-4.202,0.295-5.223,3.496-7.583c1.694,1.129,3.952,2.48,5.484,4.08
		c1.66,1.728,1.136,3.933,1.136,6.467c0,2.628-0.148,5.317-0.007,7.945c0.101,1.889-0.02,5.666,1.304,7.091
		c1.136,1.224,1.714,0.592,3.401,0.861c1.002,0.161,2.151,0.888,3.213,1.082c2.541,0.464,6.278,0.579,8.818-0.376
		c2.071-0.772,2.333-2.359,3.966-3.448c1.472-0.975,5.015-1.392,4.235-4.114c-3.69-0.565-7.239,5.995-8.685-0.438
		c-0.901-0.006-1.667-0.43-2.252-1.102c-1.008-1.15-0.396-1.036,0.047-2.4c0.423-1.311,0.612-1.781,0.383-3.3
		c-0.107-0.652-0.968-2.097-0.451-2.911c0.539-0.854,3.785-1.049,4.948-1.055c1.149-0.006,1.835,0.195,2.837,0.672
		c1.243,0.591,2.239,2.406,3.125,2.695c-0.336-2.386-1.949-1.001-3.65-1.626c-1.822-0.679-1.626-2.615-2.998-3.798
		c-1.237-1.069-3.61-1.284-3.805-3.503c-0.201-2.285,1.587-2.07,3.2-2.016c6.245,0.202-0.901-2.036-1.949-3.119
		c-1.626-1.694,0.195-5.667,0.263-7.771c2.143-0.101,3.105-0.283,4.268,1.217c0.975,1.257,1.109,3.407,2.366,4.389
		c1.499,1.17,3.099,0.659,2.608-1.539c-0.483-2.178-2.326-2.144-2.386-4.524c-0.04-1.694,0.907-3.872,2.896-2.783
		c1.042,0.572,0.82,2.736,2.097,3.395c0.464,0.235,1.6,0.033,2.138,0.027c0.969-0.006,2.023-0.074,2.763-0.591
		c0.478-0.336,0.605-1.587,1.055-1.748c1.56-0.538,3.241,2.373,4.76,1.728c-0.592-0.518-0.807-1.189-0.619-1.936
		c1.317,0.168,3.764,0.68,4.732-0.255c-0.491-0.309-0.424-0.766-0.646-1.035c0.76-0.249,0.74-0.336,1.009-1.069
		c-1.842-0.599-3.462-1.889-5.135-2.851c-0.672-0.383-1.008-0.167-1.667-0.847c-0.404-0.416-0.303-1.229-0.753-1.727
		c-0.834-0.934-6.144-2.433-4.268-4.093c1.902-1.688,6.89,2.823,6.009-2.319c-0.491-2.924-3.032-4.49-4.671-6.87
		c1.768-1.25,2.568-0.181,4.282,0.169c1.392,0.282,3.099,0,4.53,0c1.755,0,6.016,0.806,7.528,0.006
		c3.576-1.902-4.402-2.171-4.766-2.796c-0.249-0.437,0.692-2.783,0.424-3.65c-0.504-1.64-1.392-1.909-1.23-3.852
		c1.593,0.122,2.602,1.633,4.403,1.224c0.847-2.42-2.608-2.118-1.917-3.536c0.249-0.511,1.601,0.202,1.95-0.88
		c0.175-0.517-0.363-1.405-0.591-1.841c-0.417-0.821-1.197-0.491-1.305-1.681c-0.033-0.343,0.74-1.17,0.881-1.492
		c1.277-2.796,3.139-7.125,7.058-5.055c1.956,1.035,2.117,2.017,4.314,1.983c1.889-0.027,2.46-0.047,4.208,0.759
		c6.97,3.213-2.595,2.635-0.329,7.024c0.719-0.592,1.014-1.479,1.713-2.192c0.706-0.712,2.03-0.84,2.608-1.68
		c1.216-1.755-0.558-3.348,2.138-4.067c1.599-0.43,5.364,0.525,6.197,1.99c0.988,1.748-0.813,5.108-1.875,6.338
		c0.215-0.155,0.236-0.309,0.625-0.417c2.238-0.639,4.066-3.152,6.217-4.147c1.372-0.631,2.809-0.827,4.08-1.606
		c0.72-0.444,1.626-1.714,2.663-2.125c2.473-0.988,5.283-0.84,7.682-0.034c2.783,0.935,3.73,1.096,6.628,0.861
		c3.045-0.249,6.056-1.479,9.021-2.064c2.991-0.584,6.076-0.759,8.826-1.808c2.318-0.88,3.986-0.235,6.298-0.202
		c3.468,0.047,7.078-1.243,10.728-1.055c0.511,2.487-2.043,3.246-2.735,5.343c-0.592,1.815-0.235,5.296,2.306,4.766
		c-0.114,1.633-0.692,3.992-1.694,5.357c-1.552,2.117-4.423,4.214-6.688,5.599c-2.433,1.479-5.464,1.788-7.683,3.845
		c-0.9,0.833-1.311,2.03-2.077,2.85c-1.008,1.076-2.433,2.038-3.623,3.065c-1.189,1.029-2.387,2.399-3.784,3.113
		c-0.92,0.463-2.313,0.382-3.267,0.866c-1.916,0.975-3.065,3.16-4.921,4.356c-2.097,1.364-6.042,0.807-7.333,3.388
		c-1.075,2.165,1.397,3.468-0.793,5.64c-1.519,1.519-4.053,1.512-6.056,2.144c-0.504,2.4,5.854,1.398,7.293,1.257
		c3.28-0.31,5.579-2.742,8.952-2.547c0.646,2.104-1.37,2.688-2.708,3.744c-1.419,1.123-2.138,2.157-2.595,3.804
		c-0.336,1.21,0.255,1.869-1.062,2.541c-0.881,0.444-3.308,0.033-4.147-0.168c-1.499-0.37-1.601-0.975-3.382-0.693
		c-1.633,0.255-3.313,0.848-4.96,1.446c-1.646,0.598-6.978,2.205-6.634,4.328c2.346,0.222,4.026-2.285,6.453-2.56
		c2.352-0.27,5.619-0.444,7.891-0.135c0.396,1.956-1.291,2.574-2.588,3.313c-1.835,1.042-2.285,2.165-3.67,3.495
		c-2.595,2.494-4.739,4.08-8.698,3.866c2.454,1.096,3.159,1.216,5.734,0.578c2.521-0.612,4.699-0.034,6.506-1.855
		c1.586-1.599,1.129-3.596,3.341-4.12c1.714-0.396,4.215,0.551,6.077,0.141c2.131-0.471,4.014-1.929,5.869-3.085
		c1.922-1.196,4.146-1.196,6.412-1.109c2.533,0.101,3.925-0.706,5.941-2.097c4.087-2.83,7.515-1.096,11.844-0.02
		c2.131,0.531,4.511,1.176,6.716,1.243c2.15,0.068,3.569-1.297,5.376-1.922c2.414-0.833,3.799-0.323,6.023,0.686
		c2.602,1.183,4.712,0.43,7.468,0.571c1.398,0.067,2.877,0.726,4.437,0.68c1.312-0.041,2.689-0.539,4.02-0.659
		c2.292-0.208,4.47,0.235,6.601,0.45c1.19,0.122,2.951,0.155,4.154-0.02c1.17-0.169,1.587-0.828,2.399-1.089
		c1.681-0.551,5.364,0.148,7.045,0.484c2.083,0.417,3.992,2.077,5.444,3.556c1.385,1.418,1.546,2.648,1.452,4.591
		c-0.101,1.976-0.383,4.02-0.9,5.936c-0.908,3.34-2.951,4.988-5.304,7.226c-1.653,1.573-3.838,3.845-4.544,5.969
		c-0.739,2.212-0.322,4.558-0.438,6.89c-0.146,2.971-1.371,3.569-3.999,5.317c-2.635,1.74-2.602,3.031-3.146,5.861
		c-0.424,2.191-1.788,5.343-3.381,6.937c-1.802,1.808-3.946,2.225-5.378,4.456c-0.84,1.305-1.224,2.467-2.232,3.724
		c-0.813,1.015-2.097,1.977-2.479,3.328c-0.349,1.264,0.403,2.998-0.235,4.181c-0.772,1.445-2.091,1.096-3.516,1.727
		c-2.648,1.156-4.222,3.704-6.99,4.706c-2.393,0.86-5.29,0.094-7.851,0.618c-4.222,0.874-8.813,3.973-11.751,6.81
		c1.943-0.827,4.128-0.222,6.037-1.204c2.131-1.096,5.041-3.838,7.501-3.885c2.944-0.046,2.299,3.624,3.817,4.968
		c0.896,0.799,1.769,0.376,2.811,0.631c1.317,0.33,2.299,0.981,3.422,1.822c1.835,1.378,1.915,2.144,1.774,4.369
		c-0.062,0.981,0.175,1.896-0.673,2.582c-1.116,0.907-4.657,0.362-6.043,0.47c-1.291,0.108-2.514,0.222-3.831,0.222
		c-3.019,0-4.544-0.101-6.601,1.982c-2.01,2.044-5.035,2.555-6.735,4.894c-1.022,1.412-0.249,1.237-2.313,1.513
		c-1.129,0.154-2.044,0.135-3.045,0.41c-2.52,0.686-4.146,1.17-6.916,1.311c-2.024,0.108-3.664-0.275-5.774-0.43
		c-2.48-0.182-4.457-1.459-6.931-1.291c2.145,1.593,4.477,4.376,7.75,4.517c3.952,0.175,7.67,0.437,11.582,0.43
		c3.153-0.006,3.791,0.813,6.299,1.909c2.131,0.934,3.078,0.114,4.785-0.995c0.907-0.585,1.809-0.988,2.816-1.338
		c1.116-0.383,2.723-0.215,3.805-0.638c1.412-0.545,3.462-2.319,3.253-4.08c1.419-0.363,3.476-0.383,4.928-0.021
		c0.72,0.182,1.096-0.127,1.721,0.423c0.673,0.599,0.249,1.842,0.786,2.393c1.083,1.123,2.972,0.639,4.416,1.096
		c1.728,0.538,3.408,1.741,5.076,2.494c3.172,1.432,6.58,1.52,9.651,2.843c4.585,1.983,6.944,7.979,10.164,11.447
		c1.553,1.673,3.589,2.864,5.37,4.309c1.876,1.526,2.414,2.326,4.497,3.065c0.712,0.255,1.6,0.511,2.185,0.921
		c1.532,1.095,3.624,4.006,4.315,5.875c0.955,2.555,0.168,5.189,1.237,7.744c1.002,2.406,0.679,4.147,1.115,6.634
		c0.39,2.225,2.205,3.771,3.28,5.821c1.291,2.454,2.534,5.169,3.724,7.696c1.466,3.119,1.136,4.121,1.123,6.897
		c-0.014,2.467,1.647,4.779,2.797,6.695c1.148,1.916,2.264,3.462,3.717,5.223c1.68,2.037,1.397,3.69,1.526,6.158
		c1.538-0.538,3.064,0.181,4.483,0.611c1.68,0.504,3.326,0.686,4.96,1.13c2.406,0.659,4.194,2.608,6.547,3.374
		c2.292,0.753,4.457,0.975,6.642,2.205c4.309,2.439,7.548,6.521,9.651,10.937c1.427,2.99,4.001,4.672,6.131,7.198
		c2.138,2.542,6.218,2.011,7.993,5.297c-3.153-0.194-3.59,3.019-3.469,5.411c0.174,3.644,0.369,5.869,3.038,8.449
		c0.323,2.354,3.73,6.709,5.612,8.289c2.951,2.466,5.297,3.932,5.384,8.308c-1.088-2.158-2.958-1.795-5.108-1.815
		c-3.744-0.033-6.164-0.679-8.67-3.34c-1.722-1.836-3.369-3.086-5.802-3.328c-2.286-0.229-4.645,0.115-6.937,0.014
		c-2.004-0.094-4.632-0.975-6.601-0.443c-2.884,0.786-3.449,3.535,0.2,3.227c2.428-0.209,4.444-1.083,7.045-1.076
		c2.44,0.008,5.397-0.531,7.361,0.848c2.809,1.982,4.522,5.396,7.77,6.795c1.593,0.692,2.789,0.854,4.262,2.03
		c1.291,1.036,2.379,2.285,3.892,3.038c2.178,1.069,3.792,1.418,5.398,3.67c1.263,1.775,1.855,4.094,2.896,5.996
		c1.781,3.246,6.709,8.576,4.201,12.704c-0.592,0.962-2.292,1.345-3.253,1.977c-1.412,0.927-2.582,2.164-3.979,3.126
		c-1.783,1.216-5.002,2.514-5.923,4.551c-1.485,3.267,1.882,2.5,3.657,3.279c1.78,0.78,4.134,3.543,4.342,5.525
		c2.903,0.102,6.224-0.195,8.1-2.822c0.888-1.244,0.651-2.555,1.547-3.766c1.075-1.465,2.089-1.995,3.649-2.674
		c1.142-0.498,3.751-2.26,4.691-2.286c0.894-0.026,2.628,0.935,3.765,1.028c1.403,0.115,2.83,0.014,4.214,0.209
		c1.714,0.229,3.898,0.06,5.627,0.43c2.084,0.45,3.36,2.164,5.525,2.541c2.405,0.424,4.786,0.592,6.929,1.922
		c2.528,1.566,4.699,1.721,7.327,2.622c4.019,1.384,7.737,1.896,10.393,5.78c2.433,3.549,1.183,8.604,2.856,12.49
		c2.051,4.766-1.157,7.621-2.427,11.91c-0.671,2.252-2.434,4.073-2.87,6.406c-0.423,2.291-0.417,4.12-1.512,6.225
		c-1.244,2.406-2.663,1.451-4.753,2.855c-1.741,1.163-1.459,4.504-3.448,5.217c-0.652,0.235-5.761-1.768-5.908-0.928
		c-0.438,2.521,3.301,4.04,3.604,5.989c0.354,2.346-2.314,1.734-3.569,2.602c-0.634,0.443-1.594,1.694-1.997,2.339
		c-0.182,0.289-0.101,1.371-0.289,1.519c-0.901,0.706-3.521,0.693-4.672,0.431c-1.323-0.309-2.171-1.681-3.469-1.728
		c-1.19-0.04-1.149,0.599-2.171,0.921c-0.746,0.229-1.425,0.282-2.353,0.37c-1.102,0.107-2.467-0.396-2.164,1.243
		c-1.681,0.995-6.734,0.478-5.056,3.455c1.586,0.551,2.636-0.007,3.993-0.867c1.532-0.975,2.165-1.357,4.08-1.432
		c0.935,2.789,1.016,3.011-1.271,4.873c-1.512,1.23-1.25,0.552-0.651,2.252c0.315,0.895,1.096,1.056,0.847,2.474
		c-4.665,3.099-11.844,0.773-17.04,3.092c-1.062,0.478-1.801,1.311-2.89,1.728c-0.813,0.316-3.543,0.41-2.999,1.688
		c0.525,1.223,2.273,0.646,3.1,0.161c0.98-0.571,0.383-1.075,1.768-1.459c1.614-0.443,4.914-0.262,6.614,0
		c1.103,0.169,2.594-0.094,2.003,1.722c-0.477,1.438-1.424,0.504-2.588,0.847c-2.757,0.834-1.915,3.247,0.437,3.065
		c2.824-0.216,2.272-3.879,5.372-3.812c0.544,0.007,1.902,0.847,2.587,0.975c1.237,0.235,1.721-0.081,2.742,0.746
		c3.193,2.567-0.813,3.078-1.646,4.39c3.817-1.096,7.563-1.271,11.675-1.264c2.44,0.006,5.157-0.108,7.456-0.867
		c1.418-0.471,3.871-2.487,5.593-1.506c0.826,0.478,1.209,1.572,0.686,2.588c-0.539,1.035-1.271,0.699-2.191,1.344
		c-1.91,1.339-1.284,3.758-0.673,5.721c0.585,1.861,2.09,4.073,0.216,5.479c-0.519,0.383-1.688,0.336-2.294,0.638
		c-1.048,0.525-1.693,1.627-2.735,2.145c-1.122,0.564-2.642,0.498-3.837,0.969c-1.353,0.531-2.185,1.351-3.557,2.043
		c-1.155,0.585-2.508,0.988-3.683,1.674c-2.172,1.257-1.633,1.989-1.769,4.49c-2.621,0.08-6.541-0.773-8.751,0.625
		c-1.843,1.17-2.078,3.435-4.114,4.887c-2.386,1.693-4.954,1.177-7.798,1.177c-2.561,0-4.679-0.727-6.244,1.29
		c-1.601,2.07-1.016,2.527-4.106,2.373c-2.635-0.135-6.394,0.013-8.799-1.022c-1.412-0.604-2.251-1.929-3.503-2.648
		c-1.396-0.806-2.675-0.638-4.355-0.638c-3.421,0-7.38-0.491-10.613,0.43c-2.199,0.625-5.385,0.303-7.516,1.324
		c-0.76,0.363-1.27,1.21-2.077,1.492c-0.752,0.262-1.835-0.12-2.601,0.269c-2.171,1.109-1.593,1.843-4.362,1.694
		c-3.3-0.175-6.695-0.39-9.882-1.338c-1.304-0.39-1.855-0.793-3.22-0.651c-1.338,0.135-1.264,0.819-2.809,0.006
		c-0.976-0.517-1.62-1.693-2.568-2.318c-0.914-0.598-1.506-0.376-2.413-0.847c-2.15-1.116-3.67-5.861-6.587-5.189
		c-0.095,1.849-0.128,2.662,1.028,3.992c0.9,1.042,2.701,2.145,1.754,3.939c-1.311,2.461-6.856,1.21-9.021,1.311
		c0.544,3.724-2.339,1.842-4.12,1.466c-2.266-0.478-3.281,1.304-4.947,1.519L422.335,498.554z"/>
</g>
<g id="borders">
	<path id="border" fill="none" stroke="#000000" stroke-width="0.05" d="M183.436,242.031c-0.895,0.316-1.795,1.244-2.729,1.721
		c-0.86,0.444-2.38,1.116-3.004,1.862c-0.813,0.955-0.915,2.48-1.406,3.583c-0.551,1.237-1.122,1.99-1.324,3.314
		c-0.208,1.384-0.295,2.292-1.149,3.435c-0.847,1.116-2.245,1.848-2.977,2.978c-0.948,1.458,0.947,2.158,0.41,3.233
		c-0.559,1.116-3.12,0.201-3.67-0.605c-1.271,0.316-2.01,1.64-3.481,1.855c-1.089,0.161-2.931,0.356-3.906,0.181
		c-1.109-0.202-2.13-1.143-3.435-0.907c-1.223,0.229-1.768,1.768-2.756,2.742c0.672,0.867,1.5,0.531,2.393,0.948
		c1.035,0.477,1.6,1.627,2.621,2.083c1.587,0.712,3.489,0.47,5.176,0.558c0.437,1.493-1.048,1.17-1.977,1.439
		c-1.27,0.37-1.687,1.122-2.453,2.016c-0.719,0.854-1.391,1.6-2.426,1.835c-1.465,0.323-2.366-0.235-3.603,0.881
		c-0.585-0.827-0.88-1.828-1.896-1.458c-0.309,0.114-0.752,0.995-1.103,1.256c-0.43,0.323-1.042,0.491-1.559,0.632
		c0.672,1.97-2.346,1.606-3.495,2.003c-0.88,0.303-1.734,0.706-1.727,1.452c0.005,1.667,3.535,4.073,4.631,5.061
		c1.075,0.975,1.324,0.813,2.574,1.357c2.178,0.948,2.245,5.317,5.444,4.746c-0.699,0.127,0.477,3.51,1.203,3.812
		c0.747,0.31,2.138,0.087,2.964,0.182c1.298,0.154,2.635,0.208,3.872,0.686c0.82,0.315,1.802,0.571,2.474,1.149
		c0.39,0.322,0.221,0.672,0.679,1.001c0.463,0.329,1.035,0.458,1.58,0.625c0.806,0.249,1.963,0.733,2.782,0.821
		c1.277,0.133,2.091-0.867,3.233-0.834c1.439,0.054,1.104,1.378,2.138,1.734c0.787,0.269,2.272-0.74,3.153-0.605
		c0.155-0.867-0.457-1.424-0.383-2.252c2.05-0.558,1.163,2.125,2.42,1.996c1.284-0.134,0.188-2.607,0.564-3.48
		c0.531-1.237,2.635-1.332,3.885-1.668c1.089-0.289,1.022-0.02,1.277-1.184c0.154-0.672,0-1.612-0.161-2.252
		c-1.291-0.658-2.474-1.814-1.627-3.319c0.403-0.72,1.069-0.915,1.788-1.257c1.183-0.564,1.337-0.9,2.171-1.694
		c0.665-0.632,1.317-0.968,1.875-1.634c0.974-1.163,0.578-1.29,1.976-0.584c1.606,0.807,4.517,1.546,4.47,3.703
		c1.271,0.37,3.784,4.188,1.276,4.182c0.605,0.834,1.647,1.33,2.326,2.11c0.707,0.813,0.848,1.565,1.929,2.225
		c1.553,0.947,3.764,0.94,5.606,1.565c0.552,1.298,0.947,1.802,0.269,3.248c-0.477,1.034-1.291,2.298-0.82,3.615
		c0.262,0.732,0.511,0.848,1.149,1.258c0.087,0.061,0.672,0.504,0.706,0.504c0.639-0.014,0.417-0.396,0.733-0.484
		c0.141-0.033,0.712-0.322,1.143-0.416c0.732-0.162,1.687,0,2.439,0c1.345,0,2.46-0.095,3.725-0.396
		c0.382-0.088,1.412-0.129,1.694-0.344c0.457-0.35,0.362-1.27,0.746-1.693c1.412-1.573,4.692-0.699,6.601-0.289"/>
</g>
</svg>
